<svg xmlns="http://www.w3.org/2000/svg" xmlns:xlink="http://www.w3.org/1999/xlink" contentStyleType="text/css" data-diagram-type="DESCRIPTION" height="648px" preserveAspectRatio="none" style="width:592px;height:648px;background:#FFFFFF;" version="1.1" viewBox="0 0 592 648" width="592px" zoomAndPan="magnify"><title>System Context</title><defs/><g><g class="title" data-source-line="1"><text fill="#000000" font-family="sans-serif" font-size="14" font-weight="bold" lengthAdjust="spacing" textLength="124.9609" x="226.5195" y="22.9951">System Context</text></g><!--cluster Host--><g class="cluster" data-entity="Host" data-source-line="5" data-uid="ent0003" id="cluster_Host"><polygon fill="none" points="204,191.7969,214,181.7969,575,181.7969,575,290.7969,565,300.7969,204,300.7969,204,191.7969" style="stroke:#181818;stroke-width:1;"/><line style="stroke:#181818;stroke-width:1;" x1="565" x2="575" y1="191.7969" y2="181.7969"/><line style="stroke:#181818;stroke-width:1;" x1="204" x2="565" y1="191.7969" y2="191.7969"/><line style="stroke:#181818;stroke-width:1;" x1="565" x2="565" y1="191.7969" y2="300.7969"/><text fill="#000000" font-family="sans-serif" font-size="14" font-weight="bold" lengthAdjust="spacing" textLength="63.2188" x="353.8906" y="207.792">Host OS</text></g><!--cluster C--><g class="cluster" data-entity="C" data-source-line="10" data-uid="ent0006" id="cluster_C"><polygon fill="none" points="16,367.7969,26,357.7969,476,357.7969,476,621.7969,466,631.7969,16,631.7969,16,367.7969" style="stroke:#181818;stroke-width:1;"/><line style="stroke:#181818;stroke-width:1;" x1="466" x2="476" y1="367.7969" y2="357.7969"/><line style="stroke:#181818;stroke-width:1;" x1="16" x2="466" y1="367.7969" y2="367.7969"/><line style="stroke:#181818;stroke-width:1;" x1="466" x2="466" y1="367.7969" y2="631.7969"/><text fill="#000000" font-family="sans-serif" font-size="14" font-weight="bold" lengthAdjust="spacing" textLength="137.2861" x="173.3569" y="383.792">Docker Container</text><text fill="#000000" font-family="sans-serif" font-size="14" font-weight="bold" lengthAdjust="spacing" textLength="98.2256" x="192.8872" y="400.0889">ROS Humble</text></g><!--entity X11--><g class="entity" data-entity="X11" data-source-line="6" data-uid="ent0004" id="entity_X11"><rect fill="#F1F1F1" height="62.5938" rx="2.5" ry="2.5" style="stroke:#181818;stroke-width:0.5;" width="162.4727" x="220" y="221.7969"/><rect fill="#F1F1F1" height="10" style="stroke:#181818;stroke-width:0.5;" width="15" x="362.4727" y="226.7969"/><rect fill="#F1F1F1" height="2" style="stroke:#181818;stroke-width:0.5;" width="4" x="360.4727" y="228.7969"/><rect fill="#F1F1F1" height="2" style="stroke:#181818;stroke-width:0.5;" width="4" x="360.4727" y="232.7969"/><text fill="#000000" font-family="sans-serif" font-size="14" lengthAdjust="spacing" textLength="59.9512" x="235" y="254.792">X Server</text><text fill="#000000" font-family="sans-serif" font-size="14" lengthAdjust="spacing" textLength="122.4727" x="235" y="271.0889">(X11 / XWayland)</text></g><!--entity Docker--><g class="entity" data-entity="Docker" data-source-line="7" data-uid="ent0005" id="entity_Docker"><rect fill="#F1F1F1" height="46.2969" rx="2.5" ry="2.5" style="stroke:#181818;stroke-width:0.5;" width="141.9512" x="417" y="230.2969"/><path d="M464.3171,230.2969 L464.3171,235.2969 L457.3171,242.2969 L417,242.2969" fill="none" style="stroke:#181818;stroke-width:0.5;"/><text fill="#000000" font-family="sans-serif" font-size="14" lengthAdjust="spacing" textLength="101.9512" x="432" y="263.292">Docker Engine</text></g><!--entity Turtlesim--><g class="entity" data-entity="Turtlesim" data-source-line="11" data-uid="ent0007" id="entity_Turtlesim"><rect fill="#F1F1F1" height="46.2969" rx="2.5" ry="2.5" style="stroke:#181818;stroke-width:0.5;" width="144.8701" x="287.5" y="430.2969"/><rect fill="#F1F1F1" height="10" style="stroke:#181818;stroke-width:0.5;" width="15" x="412.3701" y="435.2969"/><rect fill="#F1F1F1" height="2" style="stroke:#181818;stroke-width:0.5;" width="4" x="410.3701" y="437.2969"/><rect fill="#F1F1F1" height="2" style="stroke:#181818;stroke-width:0.5;" width="4" x="410.3701" y="441.2969"/><text fill="#000000" font-family="sans-serif" font-size="14" lengthAdjust="spacing" textLength="104.8701" x="302.5" y="463.292">turtlesim_node</text></g><!--entity Ctrl--><g class="entity" data-entity="Ctrl" data-source-line="12" data-uid="ent0008" id="entity_Ctrl"><rect fill="#F1F1F1" height="62.5938" rx="2.5" ry="2.5" style="stroke:#181818;stroke-width:0.5;" width="211.7598" x="40" y="421.7969"/><rect fill="#F1F1F1" height="10" style="stroke:#181818;stroke-width:0.5;" width="15" x="231.7598" y="426.7969"/><rect fill="#F1F1F1" height="2" style="stroke:#181818;stroke-width:0.5;" width="4" x="229.7598" y="428.7969"/><rect fill="#F1F1F1" height="2" style="stroke:#181818;stroke-width:0.5;" width="4" x="229.7598" y="432.7969"/><text fill="#000000" font-family="sans-serif" font-size="14" lengthAdjust="spacing" textLength="171.7598" x="55" y="454.792">TurtleLifecycleController</text><text fill="#000000" font-family="sans-serif" font-size="14" lengthAdjust="spacing" textLength="108.876" x="55" y="471.0889">(LifecycleNode)</text></g><!--entity DDS--><g class="entity" data-entity="DDS" data-source-line="13" data-uid="ent0009" id="entity_DDS"><path d="M179,555.7969 C179,545.7969 253.0425,545.7969 253.0425,545.7969 C253.0425,545.7969 327.085,545.7969 327.085,555.7969 L327.085,597.3906 C327.085,607.3906 253.0425,607.3906 253.0425,607.3906 C253.0425,607.3906 179,607.3906 179,597.3906 L179,555.7969" fill="#F1F1F1" style="stroke:#181818;stroke-width:0.5;"/><path d="M179,555.7969 C179,565.7969 253.0425,565.7969 253.0425,565.7969 C253.0425,565.7969 327.085,565.7969 327.085,555.7969" fill="none" style="stroke:#181818;stroke-width:0.5;"/><text fill="#000000" font-family="sans-serif" font-size="14" lengthAdjust="spacing" textLength="128.085" x="189" y="582.792">ROS 2 Middleware</text><text fill="#000000" font-family="sans-serif" font-size="14" lengthAdjust="spacing" textLength="41.3711" x="189" y="599.0889">(DDS)</text></g><!--entity User--><g class="entity" data-entity="User" data-source-line="3" data-uid="ent0002" id="entity_User"><ellipse cx="300.8325" cy="51.2969" fill="#F1F1F1" rx="8" ry="8" style="stroke:#181818;stroke-width:0.5;"/><path d="M300.8325,59.2969 L300.8325,86.2969 M287.8325,67.2969 L313.8325,67.2969 M300.8325,86.2969 L287.8325,101.2969 M300.8325,86.2969 L313.8325,101.2969" fill="none" style="stroke:#181818;stroke-width:0.5;"/><text fill="#000000" font-family="sans-serif" font-size="14" lengthAdjust="spacing" textLength="62.665" x="269.5" y="115.792">Operator</text></g><!--link User to X11--><g class="link" data-entity-1="User" data-entity-2="X11" data-source-line="16" data-uid="lnk10" id="link_User_X11"><path d="M301,119.2169 C301,149.9969 301,187.0769 301,215.7869" fill="none" id="User-to-X11" style="stroke:#181818;stroke-width:1;"/><polygon fill="#181818" points="301,221.7869,305,212.7869,301,216.7869,297,212.7869,301,221.7869" style="stroke:#181818;stroke-width:1;"/><text fill="#000000" font-family="sans-serif" font-size="13" lengthAdjust="spacing" textLength="23.4229" x="302" y="161.8638">GUI</text></g><!--link X11 to Turtlesim--><g class="link" data-entity-1="X11" data-entity-2="Turtlesim" data-source-line="17" data-uid="lnk11" id="link_X11_Turtlesim"><path d="M311.8033,290.5471 C323.7633,330.6871 341.0772,388.7865 351.6572,424.3065" fill="none" id="X11-Turtlesim" style="stroke:#181818;stroke-width:1;stroke-dasharray:7,7;"/><polygon fill="#181818" points="310.09,284.7969,308.8265,294.5644,311.5178,289.5887,316.4934,292.2799,310.09,284.7969" style="stroke:#181818;stroke-width:1;"/><polygon fill="#181818" points="353.37,430.0569,354.6344,420.2895,351.9427,425.2649,346.9673,422.5732,353.37,430.0569" style="stroke:#181818;stroke-width:1;"/><text fill="#000000" font-family="sans-serif" font-size="13" lengthAdjust="spacing" textLength="54.0122" x="324" y="329.8638">DISPLAY</text></g><!--link Ctrl to DDS--><g class="link" data-entity-1="Ctrl" data-entity-2="DDS" data-source-line="18" data-uid="lnk12" id="link_Ctrl_DDS"><path d="M176.9648,489.4603 C193.3048,508.0203 206.1338,522.5847 222.4138,541.0647" fill="none" id="Ctrl-DDS" style="stroke:#181818;stroke-width:1;"/><polygon fill="#181818" points="173,484.9569,175.9449,494.3552,176.304,488.7097,181.9494,489.0688,173,484.9569" style="stroke:#181818;stroke-width:1;"/><polygon fill="#181818" points="226.38,545.5669,223.4322,536.1695,223.0748,541.8151,217.4293,541.4578,226.38,545.5669" style="stroke:#181818;stroke-width:1;"/></g><!--link Turtlesim to DDS--><g class="link" data-entity-1="Turtlesim" data-entity-2="DDS" data-source-line="19" data-uid="lnk13" id="link_Turtlesim_DDS"><path d="M336.6549,480.8 C319.5549,500.22 302.3952,519.7039 283.4452,541.2239" fill="none" id="Turtlesim-DDS" style="stroke:#181818;stroke-width:1;"/><polygon fill="#181818" points="340.62,476.2969,331.6703,480.4081,337.3157,480.0494,337.6744,485.6949,340.62,476.2969" style="stroke:#181818;stroke-width:1;"/><polygon fill="#181818" points="279.48,545.7269,288.4298,541.6159,282.7844,541.9744,282.4258,536.3289,279.48,545.7269" style="stroke:#181818;stroke-width:1;"/></g><!--link Docker to C--><g class="link" data-entity-1="Docker" data-entity-2="C" data-source-line="20" data-uid="lnk14" id="link_Docker_C"><path d="M485.74,276.6269 C484.455,289.3694 482.7281,306.4794 480.8547,325.0355 C479.918,334.3135 478.9446,343.9531 477.9715,353.589 C477.485,358.407 476.9985,363.224 476.5167,367.9945 C476.3963,369.1871 476.2761,370.3768 476.1563,371.5629 C476.1264,371.8594 476.0964,372.1557 476.0665,372.4518" fill="none" id="Docker-C" style="stroke:#181818;stroke-width:1;"/></g><!--SRC=[NL1BImCn4BxdLmnxqiDMwb5AGNR55gehnk8M14cpKrdC9YMPgelutvra-q1lmpVVQuPQCWYo3uGT5CuIVf4GIfFpa5LRz8gd35I0PK0lX7KDGZPpWQ2I2K_pjm3GhjiwYvOWgq6Y_q3_Oi_gyHWke7vMlL6sEKyInfY_yQfZhzBfT_HmOzzQYsaz8EBdaBPdn7QAEUpwM4cOxRgr6GJ5_tpQUJuhjDrhT4YSfmFqbpd0YtQ3kjS6OuPtngJgH_IUJORc1Nd31eqYjLQ1kyKcbt3NDet1J-MHPMKf1p8FyOZuECZpQJmRhk1sEHTncen6qrChNfHp-R2uNecO0PCeY0OdnX7Q_oFFeH2_]--></g></svg>